<?xml version="1.0" encoding="UTF-8"?>
<!DOCTYPE svg PUBLIC "-//W3C//DTD SVG 1.1//EN" "http://www.w3.org/Graphics/SVG/1.1/DTD/svg11.dtd">
<svg xmlns="http://www.w3.org/2000/svg" version="1.1" width="276px" height="323px" style="shape-rendering:geometricPrecision; text-rendering:geometricPrecision; image-rendering:optimizeQuality; fill-rule:evenodd; clip-rule:evenodd" xmlns:xlink="http://www.w3.org/1999/xlink">
<g><path style="opacity:1" fill="#f9f9f9" d="M -0.5,-0.5 C 91.5,-0.5 183.5,-0.5 275.5,-0.5C 275.5,107.167 275.5,214.833 275.5,322.5C 183.5,322.5 91.5,322.5 -0.5,322.5C -0.5,214.833 -0.5,107.167 -0.5,-0.5 Z"/></g>
<g><path style="opacity:1" fill="#f8f9f9" d="M 225.5,75.5 C 226.561,79.3514 226.561,83.1848 225.5,87C 225.833,87.5 226.167,88 226.5,88.5C 227.524,87.1468 228.857,86.4802 230.5,86.5C 230.204,132.468 230.538,178.468 231.5,224.5C 229.847,229.36 229.18,234.36 229.5,239.5C 224.778,249.222 217.444,256.222 207.5,260.5C 205.533,260.739 203.699,260.406 202,259.5C 201.5,260 201,260.5 200.5,261C 153.168,261.5 105.835,261.667 58.5,261.5C 50.0609,260.383 43.3942,256.383 38.5,249.5C 38.8039,248.85 39.1373,248.183 39.5,247.5C 37.5622,244.61 35.3955,241.944 33,239.5C 32.854,234.52 32.0206,229.686 30.5,225C 30.7757,180.973 30.7757,136.973 30.5,93C 34.7477,86.9867 37.9144,80.1533 40,72.5C 42.1851,70.4598 44.6851,69.1264 47.5,68.5C 47.3915,66.4862 48.0582,64.8195 49.5,63.5C 52.7536,61.2554 56.4202,59.7554 60.5,59C 106.833,58.3333 153.167,58.3333 199.5,59C 211.022,60.4167 219.689,65.9167 225.5,75.5 Z"/></g>
<g><path style="opacity:1" fill="#ecf7f7" d="M 220.5,65.5 C 223.459,65.3501 225.959,66.3501 228,68.5C 230.588,73.3438 232.921,78.3438 235,83.5C 235.29,81.9559 235.956,80.6226 237,79.5C 235.918,83.0233 235.585,86.6899 236,90.5C 236.5,92.3333 237.667,93.5 239.5,94C 238.224,96.724 237.558,99.724 237.5,103C 237.604,137.83 237.604,172.663 237.5,207.5C 237.921,211.872 238.588,216.205 239.5,220.5C 238.354,225.084 237.187,229.751 236,234.5C 235.583,235.756 234.75,236.423 233.5,236.5C 234.137,233.544 234.637,230.544 235,227.5C 235.667,182.167 235.667,136.833 235,91.5C 233.019,81.2011 228.186,72.5344 220.5,65.5 Z"/></g>
<g><path style="opacity:1" fill="#e6f5f3" d="M 49.5,63.5 C 48.0582,64.8195 47.3915,66.4862 47.5,68.5C 44.6851,69.1264 42.1851,70.4598 40,72.5C 37.9144,80.1533 34.7477,86.9867 30.5,93C 30.7757,136.973 30.7757,180.973 30.5,225C 32.0206,229.686 32.854,234.52 33,239.5C 35.3955,241.944 37.5622,244.61 39.5,247.5C 39.1373,248.183 38.8039,248.85 38.5,249.5C 33.5303,244.565 30.3636,238.565 29,231.5C 28.5034,229.19 28.3367,226.857 28.5,224.5C 28.5,218.833 28.5,213.167 28.5,207.5C 28.3333,168.832 28.5,130.165 29,91.5C 31.7255,79.007 38.5588,69.6737 49.5,63.5 Z"/></g>
<g><path style="opacity:1" fill="#dff0ef" d="M 225.5,75.5 C 227.173,76.343 228.34,77.6763 229,79.5C 230.937,83.6457 232.271,87.979 233,92.5C 233.667,137.833 233.667,183.167 233,228.5C 232.136,232.384 230.97,236.051 229.5,239.5C 229.18,234.36 229.847,229.36 231.5,224.5C 230.538,178.468 230.204,132.468 230.5,86.5C 228.857,86.4802 227.524,87.1468 226.5,88.5C 226.167,88 225.833,87.5 225.5,87C 226.561,83.1848 226.561,79.3514 225.5,75.5 Z"/></g>
<g><path style="opacity:1" fill="#e5f3f1" d="M 36.5,70.5 C 28.3817,79.9564 25.0484,90.9564 26.5,103.5C 26.5,143.833 26.5,184.167 26.5,224.5C 26.4205,228.943 27.0872,233.277 28.5,237.5C 30.5221,241.544 32.5221,245.544 34.5,249.5C 33.2794,248.972 32.1127,248.305 31,247.5C 30.8347,243.825 29.168,241.158 26,239.5C 24.516,233.929 23.6827,228.263 23.5,222.5C 23.424,180.526 23.5907,138.526 24,96.5C 24.3148,93.6285 24.8148,90.7952 25.5,88C 24.5004,85.7871 25.1671,83.9538 27.5,82.5C 26.4659,79.9428 27.4659,78.6095 30.5,78.5C 30.3398,76.8008 30.5065,75.1341 31,73.5C 32.5848,72.6243 33.5848,71.2909 34,69.5C 34.6708,70.2524 35.5041,70.5858 36.5,70.5 Z"/></g>
<g><path style="opacity:1" fill="#76a099" d="M 26.5,103.5 C 27.1667,138.167 27.8333,172.833 28.5,207.5C 28.5,213.167 28.5,218.833 28.5,224.5C 27.8333,224.5 27.1667,224.5 26.5,224.5C 26.5,184.167 26.5,143.833 26.5,103.5 Z"/></g>
<g><path style="opacity:1" fill="#83ada7" d="M 220.5,65.5 C 228.186,72.5344 233.019,81.2011 235,91.5C 235.667,136.833 235.667,182.167 235,227.5C 234.637,230.544 234.137,233.544 233.5,236.5C 227.639,252.436 216.306,261.77 199.5,264.5C 198.167,264.5 196.833,264.5 195.5,264.5C 151.5,263.833 107.5,263.167 63.5,262.5C 110.168,262.667 156.835,262.5 203.5,262C 205.058,261.79 206.391,261.29 207.5,260.5C 217.444,256.222 224.778,249.222 229.5,239.5C 230.97,236.051 232.136,232.384 233,228.5C 233.667,183.167 233.667,137.833 233,92.5C 232.271,87.979 230.937,83.6457 229,79.5C 228.34,77.6763 227.173,76.343 225.5,75.5C 219.689,65.9167 211.022,60.4167 199.5,59C 153.167,58.3333 106.833,58.3333 60.5,59C 56.4202,59.7554 52.7536,61.2554 49.5,63.5C 38.5588,69.6737 31.7255,79.007 29,91.5C 28.5,130.165 28.3333,168.832 28.5,207.5C 27.8333,172.833 27.1667,138.167 26.5,103.5C 25.0484,90.9564 28.3817,79.9564 36.5,70.5C 42.8948,63.9644 50.5615,59.4644 59.5,57C 106.167,56.3333 152.833,56.3333 199.5,57C 207.435,57.8048 214.435,60.6381 220.5,65.5 Z"/></g>
<g><path style="opacity:1" fill="#2d5d91" d="M 102.5,122.5 C 101.663,129.18 102.996,135.347 106.5,141C 105.549,141.718 105.383,142.551 106,143.5C 107.487,142.845 108.653,141.845 109.5,140.5C 109.297,136.538 108.297,132.538 106.5,128.5C 106.833,128.167 107.167,127.833 107.5,127.5C 108.93,130.372 110.596,133.205 112.5,136C 112.167,136.333 111.833,136.667 111.5,137C 114.393,138.149 117.393,138.649 120.5,138.5C 120.238,139.978 120.571,141.311 121.5,142.5C 122.696,142.154 122.696,141.654 121.5,141C 125.095,141.613 125.429,140.446 122.5,137.5C 123.274,136.289 124.107,136.289 125,137.5C 125.333,136.833 125.667,136.167 126,135.5C 129.378,135.868 132.878,135.868 136.5,135.5C 136.5,136.5 136.5,137.5 136.5,138.5C 137.5,138.5 138.5,138.5 139.5,138.5C 137.833,139.167 136.167,139.833 134.5,140.5C 132.585,140.216 130.919,140.549 129.5,141.5C 128.508,141.328 127.842,141.662 127.5,142.5C 125.445,143.559 124.111,145.225 123.5,147.5C 122.527,149.948 122.194,152.615 122.5,155.5C 118.833,155.5 115.167,155.5 111.5,155.5C 107.741,150.518 104.741,145.185 102.5,139.5C 101.349,133.682 101.349,128.015 102.5,122.5 Z"/></g>
<g><path style="opacity:1" fill="#a5bace" d="M 127.5,142.5 C 127.842,141.662 128.508,141.328 129.5,141.5C 136.588,141.205 143.588,141.538 150.5,142.5C 150.5,142.833 150.5,143.167 150.5,143.5C 142.889,142.566 135.222,142.233 127.5,142.5 Z"/></g>
<g><path style="opacity:1" fill="#96b7d7" d="M 78.5,142.5 C 83.6503,141.349 88.9836,141.183 94.5,142C 95.056,142.383 95.3893,142.883 95.5,143.5C 94.8333,143.5 94.1667,143.5 93.5,143.5C 88.6946,142.513 83.6946,142.179 78.5,142.5 Z"/></g>
<g><path style="opacity:1" fill="#26557f" d="M 154.5,135.5 C 157.912,136.042 160.912,137.375 163.5,139.5C 162.957,139.56 162.624,139.893 162.5,140.5C 163.811,141.258 164.311,142.258 164,143.5C 162.887,142.289 161.72,142.289 160.5,143.5C 159.757,144.908 158.923,146.241 158,147.5C 156.563,144.292 154.063,142.625 150.5,142.5C 143.588,141.538 136.588,141.205 129.5,141.5C 130.919,140.549 132.585,140.216 134.5,140.5C 139.844,140.666 145.177,140.499 150.5,140C 151.989,138.532 153.323,137.032 154.5,135.5 Z"/></g>
<g><path style="opacity:1" fill="#1f466f" d="M 135.5,132.5 C 138.833,132.5 142.167,132.5 145.5,132.5C 148.746,133.054 151.746,134.054 154.5,135.5C 153.323,137.032 151.989,138.532 150.5,140C 145.177,140.499 139.844,140.666 134.5,140.5C 136.167,139.833 137.833,139.167 139.5,138.5C 138.316,137.312 138.316,136.145 139.5,135C 137.934,134.392 136.6,133.558 135.5,132.5 Z"/></g>
<g><path style="opacity:1" fill="#36748e" d="M 69.5,130.5 C 69.5,135.167 69.5,139.833 69.5,144.5C 65.5,144.5 61.5,144.5 57.5,144.5C 56.3982,140.253 56.2316,135.92 57,131.5C 61.0659,130.536 65.2325,130.203 69.5,130.5 Z"/></g>
<g><path style="opacity:1" fill="#dde9ef" d="M 171.5,143.5 C 169.144,141.655 166.477,140.322 163.5,139.5C 160.912,137.375 157.912,136.042 154.5,135.5C 151.746,134.054 148.746,133.054 145.5,132.5C 145.5,132.167 145.5,131.833 145.5,131.5C 148.049,131.613 150.382,130.946 152.5,129.5C 153.5,130 154.5,130.5 155.5,131C 154.631,132.465 155.131,133.631 157,134.5C 158.789,133.591 160.623,133.424 162.5,134C 165.419,136.946 168.752,139.279 172.5,141C 171.748,141.671 171.414,142.504 171.5,143.5 Z"/></g>
<g><path style="opacity:1" fill="#a0bfcc" d="M 56.5,129.5 C 61.0323,129.182 65.3656,129.515 69.5,130.5C 65.2325,130.203 61.0659,130.536 57,131.5C 56.2316,135.92 56.3982,140.253 57.5,144.5C 55.5698,140.627 54.9031,136.294 55.5,131.5C 55.8333,130.833 56.1667,130.167 56.5,129.5 Z"/></g>
<g><path style="opacity:1" fill="#b6cbdd" d="M 135.5,117.5 C 130.665,127.504 133.998,132.171 145.5,131.5C 145.5,131.833 145.5,132.167 145.5,132.5C 142.167,132.5 138.833,132.5 135.5,132.5C 130.221,127.296 130.221,122.296 135.5,117.5 Z"/></g>
<g><path style="opacity:1" fill="#284b77" d="M 138.5,111.5 C 139.167,111.833 139.833,112.167 140.5,112.5C 138.833,113.833 137.167,115.167 135.5,116.5C 135.5,116.833 135.5,117.167 135.5,117.5C 130.221,122.296 130.221,127.296 135.5,132.5C 133.983,132.489 132.816,131.823 132,130.5C 131.667,130.833 131.333,131.167 131,131.5C 130.099,128.48 129.266,125.48 128.5,122.5C 129.131,120.552 130.131,118.719 131.5,117C 131.167,116.667 130.833,116.333 130.5,116C 132.878,114.322 135.545,112.822 138.5,111.5 Z"/></g>
<g><path style="opacity:1" fill="#1b477f" d="M 126.5,105.5 C 125.987,107.854 124.821,109.854 123,111.5C 121.865,111.727 120.698,112.06 119.5,112.5C 121.793,114.23 124.293,115.563 127,116.5C 127.5,114.667 128.667,113.5 130.5,113C 130.167,112.667 129.833,112.333 129.5,112C 130.833,111.667 132.167,111.333 133.5,111C 131.355,110.257 131.189,109.424 133,108.5C 135.296,108.859 137.129,109.859 138.5,111.5C 135.545,112.822 132.878,114.322 130.5,116C 130.833,116.333 131.167,116.667 131.5,117C 130.131,118.719 129.131,120.552 128.5,122.5C 127.58,121.933 127.246,122.599 127.5,124.5C 124.15,124.665 120.817,124.498 117.5,124C 115.981,122.649 114.648,121.149 113.5,119.5C 112.575,118.359 111.741,118.359 111,119.5C 108.073,113.942 107.907,108.608 110.5,103.5C 110.833,102.833 111.167,102.167 111.5,101.5C 114.493,100.865 117.493,100.699 120.5,101C 120.311,103.295 118.977,105.295 116.5,107C 118.167,109 119.833,109 121.5,107C 120.289,106.107 120.289,105.274 121.5,104.5C 123.071,105.309 124.738,105.643 126.5,105.5 Z"/></g>
<g><path style="opacity:1" fill="#5e7b9e" d="M 104.5,111.5 C 104.833,111.5 105.167,111.5 105.5,111.5C 105.946,114.01 105.28,116.01 103.5,117.5C 103.517,115.435 103.85,113.435 104.5,111.5 Z"/></g>
<g><path style="opacity:1" fill="#ebf3f5" d="M 55.5,131.5 C 54.9031,136.294 55.5698,140.627 57.5,144.5C 61.5,144.5 65.5,144.5 69.5,144.5C 69.5,139.833 69.5,135.167 69.5,130.5C 65.3656,129.515 61.0323,129.182 56.5,129.5C 59.4678,128.031 62.6344,126.698 66,125.5C 67.487,126.253 67.6537,127.086 66.5,128C 67.448,128.483 68.448,128.649 69.5,128.5C 69.9452,125.72 69.9452,123.053 69.5,120.5C 70.7366,119.719 71.7366,118.719 72.5,117.5C 69.5459,116.853 66.5459,116.686 63.5,117C 64.1754,112.501 64.8421,107.667 65.5,102.5C 65.6399,100.97 66.3065,99.9704 67.5,99.5C 71.6344,98.5151 75.9677,98.1818 80.5,98.5C 81.7638,101.993 81.7638,105.493 80.5,109C 80.6667,109.833 80.8333,110.667 81,111.5C 81.3333,110.167 81.6667,108.833 82,107.5C 83.2525,110.014 83.7525,112.68 83.5,115.5C 86.3467,115.782 89.0134,115.782 91.5,115.5C 92.3333,116.5 93.1667,117.5 94,118.5C 93.9369,123.464 93.4369,128.464 92.5,133.5C 91.5224,133.977 90.6891,134.643 90,135.5C 89.2825,134.549 88.4491,134.383 87.5,135C 88.4506,135.718 88.6172,136.551 88,137.5C 84.9133,133.603 81.08,132.603 76.5,134.5C 76.3743,131.442 74.8743,131.109 72,133.5C 71.7134,137.603 72.0468,141.603 73,145.5C 70.8212,146.762 68.6545,148.095 66.5,149.5C 63.5106,147.961 60.3439,146.961 57,146.5C 56.6667,146.833 56.3333,147.167 56,147.5C 55.0975,146.299 53.9308,145.465 52.5,145C 53.202,141.534 53.8687,138.034 54.5,134.5C 53.2232,133.078 53.5565,132.078 55.5,131.5 Z"/></g>
<g><path style="opacity:1" fill="#94b2d1" d="M 90.5,131.5 C 90.6655,127.486 90.4988,123.486 90,119.5C 86.3333,118.167 82.6667,118.167 79,119.5C 78.5012,123.486 78.3345,127.486 78.5,131.5C 77.353,127.354 77.1864,123.02 78,118.5C 82.3333,117.167 86.6667,117.167 91,118.5C 91.8136,123.02 91.647,127.354 90.5,131.5 Z"/></g>
<g><path style="opacity:1" fill="#2f66a1" d="M 90.5,131.5 C 86.5,131.5 82.5,131.5 78.5,131.5C 78.3345,127.486 78.5012,123.486 79,119.5C 82.6667,118.167 86.3333,118.167 90,119.5C 90.4988,123.486 90.6655,127.486 90.5,131.5 Z"/></g>
<g><path style="opacity:1" fill="#8f9db7" d="M 140.5,112.5 C 144.833,112.5 149.167,112.5 153.5,112.5C 158.167,112.5 162.833,112.5 167.5,112.5C 159.343,113.329 151.01,113.829 142.5,114C 140.235,115.118 137.901,115.951 135.5,116.5C 137.167,115.167 138.833,113.833 140.5,112.5 Z"/></g>
<g><path style="opacity:1" fill="#21528a" d="M 110.5,103.5 C 107.907,108.608 108.073,113.942 111,119.5C 111.741,118.359 112.575,118.359 113.5,119.5C 114.648,121.149 115.981,122.649 117.5,124C 120.817,124.498 124.15,124.665 127.5,124.5C 127.246,122.599 127.58,121.933 128.5,122.5C 129.266,125.48 130.099,128.48 131,131.5C 131.333,131.167 131.667,130.833 132,130.5C 132.816,131.823 133.983,132.489 135.5,132.5C 136.6,133.558 137.934,134.392 139.5,135C 138.316,136.145 138.316,137.312 139.5,138.5C 138.5,138.5 137.5,138.5 136.5,138.5C 136.5,137.5 136.5,136.5 136.5,135.5C 132.878,135.868 129.378,135.868 126,135.5C 125.667,136.167 125.333,136.833 125,137.5C 124.107,136.289 123.274,136.289 122.5,137.5C 125.429,140.446 125.095,141.613 121.5,141C 122.696,141.654 122.696,142.154 121.5,142.5C 120.571,141.311 120.238,139.978 120.5,138.5C 117.393,138.649 114.393,138.149 111.5,137C 111.833,136.667 112.167,136.333 112.5,136C 110.596,133.205 108.93,130.372 107.5,127.5C 107.167,127.833 106.833,128.167 106.5,128.5C 108.297,132.538 109.297,136.538 109.5,140.5C 108.653,141.845 107.487,142.845 106,143.5C 105.383,142.551 105.549,141.718 106.5,141C 102.996,135.347 101.663,129.18 102.5,122.5C 102.366,120.708 102.699,119.042 103.5,117.5C 105.28,116.01 105.946,114.01 105.5,111.5C 105.5,111.167 105.5,110.833 105.5,110.5C 106.906,110.027 107.573,109.027 107.5,107.5C 107.554,105.368 108.554,104.035 110.5,103.5 Z"/></g>
<g><path style="opacity:1" fill="#b4b5cb" d="M 180.5,108.5 C 179.514,110.408 177.848,111.408 175.5,111.5C 176.659,109.75 178.326,108.75 180.5,108.5 Z"/></g>
<g><path style="opacity:1" fill="#8ca1bb" d="M 107.5,107.5 C 107.573,109.027 106.906,110.027 105.5,110.5C 105.427,108.973 106.094,107.973 107.5,107.5 Z"/></g>
<g><path style="opacity:1" fill="#639a97" d="M 67.5,99.5 C 71.1667,99.5 74.8333,99.5 78.5,99.5C 78.5,103.833 78.5,108.167 78.5,112.5C 74.5633,112.793 70.73,112.46 67,111.5C 66.1901,107.642 66.3567,103.976 67.5,100.5C 67.5,100.167 67.5,99.8333 67.5,99.5 Z"/></g>
<g><path style="opacity:1" fill="#a29fb7" d="M 183.5,106.5 C 183.027,107.906 182.027,108.573 180.5,108.5C 180.973,107.094 181.973,106.427 183.5,106.5 Z"/></g>
<g><path style="opacity:1" fill="#c9cada" d="M 188.5,100.5 C 187.637,101.94 187.637,103.274 188.5,104.5C 186.978,105.562 185.312,106.229 183.5,106.5C 183.5,106.167 183.5,105.833 183.5,105.5C 185.167,103.833 186.833,102.167 188.5,100.5 Z"/></g>
<g><path style="opacity:1" fill="#3d8681" d="M 67.5,100.5 C 70.8333,100.5 74.1667,100.5 77.5,100.5C 77.5,104.167 77.5,107.833 77.5,111.5C 74.8333,111.5 72.1667,111.5 69.5,111.5C 69.0392,107.788 68.3725,104.121 67.5,100.5 Z"/></g>
<g><path style="opacity:1" fill="#204271" d="M 129.5,89.5 C 127.335,91.1457 125.002,92.6457 122.5,94C 123.104,96.4675 124.438,98.4675 126.5,100C 125.248,101.828 125.248,103.661 126.5,105.5C 124.738,105.643 123.071,105.309 121.5,104.5C 120.289,105.274 120.289,106.107 121.5,107C 119.833,109 118.167,109 116.5,107C 118.977,105.295 120.311,103.295 120.5,101C 117.493,100.699 114.493,100.865 111.5,101.5C 116.213,95.4831 122.213,91.4831 129.5,89.5 Z"/></g>
<g><path style="opacity:1" fill="#0a133d" d="M 172.5,87.5 C 178.868,87.1703 185.202,87.5037 191.5,88.5C 190.626,90.7466 190.292,93.0799 190.5,95.5C 189.833,97.1667 189.167,98.8333 188.5,100.5C 186.833,102.167 185.167,103.833 183.5,105.5C 182.833,105.5 182.167,105.5 181.5,105.5C 182.598,104.603 182.598,103.77 181.5,103C 178.032,102.651 174.698,101.818 171.5,100.5C 169.182,97.5843 169.016,94.5843 171,91.5C 172.446,98.5508 175.946,100.551 181.5,97.5C 182.187,99.2744 183.02,100.941 184,102.5C 186.893,99.381 188.726,95.7143 189.5,91.5C 188.478,90.646 187.645,89.646 187,88.5C 186.261,89.5742 185.261,90.2409 184,90.5C 181.041,88.8297 178.041,88.4964 175,89.5C 174.005,88.9341 173.172,88.2674 172.5,87.5 Z"/></g>
<g><path style="opacity:1" fill="#d2d2de" d="M 192.5,90.5 C 192.833,90.5 193.167,90.5 193.5,90.5C 194.579,95.011 192.912,98.3444 188.5,100.5C 189.167,98.8333 189.833,97.1667 190.5,95.5C 191.309,93.9724 191.976,92.3057 192.5,90.5 Z"/></g>
<g><path style="opacity:1" fill="#133769" d="M 129.5,89.5 C 132.57,89.3677 135.57,89.701 138.5,90.5C 138.005,94.5032 139.505,97.5032 143,99.5C 143.49,100.793 143.657,102.127 143.5,103.5C 149.325,104.343 152.659,107.343 153.5,112.5C 149.167,112.5 144.833,112.5 140.5,112.5C 139.833,112.167 139.167,111.833 138.5,111.5C 137.129,109.859 135.296,108.859 133,108.5C 131.189,109.424 131.355,110.257 133.5,111C 132.167,111.333 130.833,111.667 129.5,112C 129.833,112.333 130.167,112.667 130.5,113C 128.667,113.5 127.5,114.667 127,116.5C 124.293,115.563 121.793,114.23 119.5,112.5C 120.698,112.06 121.865,111.727 123,111.5C 124.821,109.854 125.987,107.854 126.5,105.5C 125.248,103.661 125.248,101.828 126.5,100C 124.438,98.4675 123.104,96.4675 122.5,94C 125.002,92.6457 127.335,91.1457 129.5,89.5 Z"/></g>
<g><path style="opacity:1" fill="#e4ecf3" d="M 143.5,85.5 C 143.5,85.8333 143.5,86.1667 143.5,86.5C 138.393,86.0444 133.726,87.0444 129.5,89.5C 122.213,91.4831 116.213,95.4831 111.5,101.5C 111.167,102.167 110.833,102.833 110.5,103.5C 108.554,104.035 107.554,105.368 107.5,107.5C 106.094,107.973 105.427,108.973 105.5,110.5C 105.5,110.833 105.5,111.167 105.5,111.5C 105.167,111.5 104.833,111.5 104.5,111.5C 104.461,110.417 104.127,109.417 103.5,108.5C 104.763,105.397 106.263,102.397 108,99.5C 108.333,100.5 108.667,101.5 109,102.5C 113.763,92.3395 121.43,86.6729 132,85.5C 135.682,85.7188 139.516,85.7188 143.5,85.5 Z"/></g>
<g><path style="opacity:1" fill="#0b1444" d="M 171.5,87.5 C 171.833,87.5 172.167,87.5 172.5,87.5C 173.172,88.2674 174.005,88.9341 175,89.5C 178.041,88.4964 181.041,88.8297 184,90.5C 185.261,90.2409 186.261,89.5742 187,88.5C 187.645,89.646 188.478,90.646 189.5,91.5C 188.726,95.7143 186.893,99.381 184,102.5C 183.02,100.941 182.187,99.2744 181.5,97.5C 175.946,100.551 172.446,98.5508 171,91.5C 169.016,94.5843 169.182,97.5843 171.5,100.5C 174.698,101.818 178.032,102.651 181.5,103C 182.598,103.77 182.598,104.603 181.5,105.5C 178.02,107.054 174.687,108.721 171.5,110.5C 170.199,109.36 169.032,108.027 168,106.5C 167.163,108.007 165.996,108.507 164.5,108C 164.623,101.984 164.623,95.8177 164.5,89.5C 164.275,87.8359 166.442,88.1692 171,90.5C 171.483,89.552 171.649,88.552 171.5,87.5 Z"/></g>
<g><path style="opacity:1" fill="#0e2756" d="M 146.5,87.5 C 149.234,88.705 151.901,90.205 154.5,92C 153.833,93 153.167,94 152.5,95C 155.03,96.1951 157.03,98.0284 158.5,100.5C 159.325,104.122 159.825,107.789 160,111.5C 160.308,110.692 160.808,110.025 161.5,109.5C 164.758,110.417 168.091,110.751 171.5,110.5C 174.687,108.721 178.02,107.054 181.5,105.5C 182.167,105.5 182.833,105.5 183.5,105.5C 183.5,105.833 183.5,106.167 183.5,106.5C 181.973,106.427 180.973,107.094 180.5,108.5C 178.326,108.75 176.659,109.75 175.5,111.5C 172.833,111.833 170.167,112.167 167.5,112.5C 162.833,112.5 158.167,112.5 153.5,112.5C 152.659,107.343 149.325,104.343 143.5,103.5C 143.657,102.127 143.49,100.793 143,99.5C 139.505,97.5032 138.005,94.5032 138.5,90.5C 140.386,87.9006 143.052,86.9006 146.5,87.5 Z"/></g>
<g><path style="opacity:1" fill="#0c1d4d" d="M 146.5,87.5 C 154.833,87.5 163.167,87.5 171.5,87.5C 171.649,88.552 171.483,89.552 171,90.5C 166.442,88.1692 164.275,87.8359 164.5,89.5C 164.623,95.8177 164.623,101.984 164.5,108C 165.996,108.507 167.163,108.007 168,106.5C 169.032,108.027 170.199,109.36 171.5,110.5C 168.091,110.751 164.758,110.417 161.5,109.5C 160.808,110.025 160.308,110.692 160,111.5C 159.825,107.789 159.325,104.122 158.5,100.5C 157.03,98.0284 155.03,96.1951 152.5,95C 153.167,94 153.833,93 154.5,92C 151.901,90.205 149.234,88.705 146.5,87.5 Z"/></g>
<g><path style="opacity:1" fill="#273356" d="M 143.5,86.5 C 159.833,86.5 176.167,86.5 192.5,86.5C 192.5,87.8333 192.5,89.1667 192.5,90.5C 191.976,92.3057 191.309,93.9724 190.5,95.5C 190.292,93.0799 190.626,90.7466 191.5,88.5C 185.202,87.5037 178.868,87.1703 172.5,87.5C 172.167,87.5 171.833,87.5 171.5,87.5C 163.167,87.5 154.833,87.5 146.5,87.5C 143.052,86.9006 140.386,87.9006 138.5,90.5C 135.57,89.701 132.57,89.3677 129.5,89.5C 133.726,87.0444 138.393,86.0444 143.5,86.5 Z"/></g>
<g><path style="opacity:1" fill="#a0a2b6" d="M 143.5,86.5 C 143.5,86.1667 143.5,85.8333 143.5,85.5C 160.167,85.5 176.833,85.5 193.5,85.5C 193.5,87.1667 193.5,88.8333 193.5,90.5C 193.167,90.5 192.833,90.5 192.5,90.5C 192.5,89.1667 192.5,87.8333 192.5,86.5C 176.167,86.5 159.833,86.5 143.5,86.5 Z"/></g>
<g><path style="opacity:1" fill="#6185b5" d="M 78.5,142.5 C 83.6946,142.179 88.6946,142.513 93.5,143.5C 88.3054,143.179 83.3054,143.513 78.5,144.5C 78.5,149.167 78.5,153.833 78.5,158.5C 83.0557,160.442 88.0557,161.108 93.5,160.5C 88.0992,161.825 82.5992,161.825 77,160.5C 76.3333,154.833 76.3333,149.167 77,143.5C 77.3826,142.944 77.8826,142.611 78.5,142.5 Z"/></g>
<g><path style="opacity:1" fill="#2a63ae" d="M 78.5,144.5 C 80.5273,144.338 82.5273,144.505 84.5,145C 83.3044,145.654 83.3044,146.154 84.5,146.5C 86.6828,144.941 88.8495,144.274 91,144.5C 92.0813,147.853 92.248,151.186 91.5,154.5C 89.5,153.5 87.5,152.5 85.5,151.5C 84.895,152.587 85.2283,153.754 86.5,155C 84.1159,156.902 81.4492,158.069 78.5,158.5C 78.5,153.833 78.5,149.167 78.5,144.5 Z"/></g>
<g><path style="opacity:1" fill="#27619e" d="M 112.5,138.5 C 115.471,140.657 118.471,142.824 121.5,145C 121.523,147.432 121.19,149.932 120.5,152.5C 116.414,154.06 112.747,153.393 109.5,150.5C 108.572,149.232 108.405,147.899 109,146.5C 109.333,146.833 109.667,147.167 110,147.5C 110.827,144.584 112.494,143.917 115,145.5C 116.059,145.37 116.892,144.87 117.5,144C 115.22,143.767 113.22,142.934 111.5,141.5C 112.127,140.583 112.461,139.583 112.5,138.5 Z"/></g>
<g><path style="opacity:1" fill="#346a81" d="M 154.5,148.5 C 157.459,148.777 158.126,150.11 156.5,152.5C 157.531,154.382 158.365,156.382 159,158.5C 160.785,157.76 162.618,157.093 164.5,156.5C 165.192,157.025 165.692,157.692 166,158.5C 166.333,158.167 166.667,157.833 167,157.5C 170.242,159.91 172.908,159.577 175,156.5C 176.578,156.588 178.078,156.588 179.5,156.5C 178.58,153.885 177.247,151.219 175.5,148.5C 178.243,150.239 180.243,152.573 181.5,155.5C 181.719,156.675 181.386,157.675 180.5,158.5C 178.491,160.01 176.658,161.677 175,163.5C 173.715,163.402 172.549,163.402 171.5,163.5C 171.167,163.5 170.833,163.5 170.5,163.5C 169.078,162.075 167.411,161.075 165.5,160.5C 162.038,159.518 158.371,159.185 154.5,159.5C 154.5,155.833 154.5,152.167 154.5,148.5 Z"/></g>
<g><path style="opacity:1" fill="#a2c0cb" d="M 150.5,143.5 C 152.587,144.585 153.92,146.251 154.5,148.5C 154.5,152.167 154.5,155.833 154.5,159.5C 158.371,159.185 162.038,159.518 165.5,160.5C 161.5,160.5 157.5,160.5 153.5,160.5C 153.666,156.154 153.499,151.821 153,147.5C 151.519,146.529 150.685,145.196 150.5,143.5 Z"/></g>
<g><path style="opacity:1" fill="#dae9f3" d="M 102.5,139.5 C 104.741,145.185 107.741,150.518 111.5,155.5C 115.298,156.483 119.298,156.817 123.5,156.5C 120.038,157.482 116.371,157.815 112.5,157.5C 111.883,157.611 111.383,157.944 111,158.5C 107.962,155.753 105.962,152.42 105,148.5C 104.333,149.833 103.667,149.833 103,148.5C 102.502,145.518 102.335,142.518 102.5,139.5 Z"/></g>
<g><path style="opacity:1" fill="#296081" d="M 163.5,139.5 C 166.477,140.322 169.144,141.655 171.5,143.5C 172.833,145.167 174.167,146.833 175.5,148.5C 177.247,151.219 178.58,153.885 179.5,156.5C 178.078,156.588 176.578,156.588 175,156.5C 172.908,159.577 170.242,159.91 167,157.5C 166.667,157.833 166.333,158.167 166,158.5C 165.692,157.692 165.192,157.025 164.5,156.5C 162.618,157.093 160.785,157.76 159,158.5C 158.365,156.382 157.531,154.382 156.5,152.5C 158.126,150.11 157.459,148.777 154.5,148.5C 153.92,146.251 152.587,144.585 150.5,143.5C 150.5,143.167 150.5,142.833 150.5,142.5C 154.063,142.625 156.563,144.292 158,147.5C 158.923,146.241 159.757,144.908 160.5,143.5C 161.72,142.289 162.887,142.289 164,143.5C 164.311,142.258 163.811,141.258 162.5,140.5C 162.624,139.893 162.957,139.56 163.5,139.5 Z"/></g>
<g><path style="opacity:1" fill="#2f66a7" d="M 78.5,144.5 C 83.3054,143.513 88.3054,143.179 93.5,143.5C 94.1667,143.5 94.8333,143.5 95.5,143.5C 96.1167,149.598 95.45,155.265 93.5,160.5C 88.0557,161.108 83.0557,160.442 78.5,158.5C 81.4492,158.069 84.1159,156.902 86.5,155C 85.2283,153.754 84.895,152.587 85.5,151.5C 87.5,152.5 89.5,153.5 91.5,154.5C 92.248,151.186 92.0813,147.853 91,144.5C 88.8495,144.274 86.6828,144.941 84.5,146.5C 83.3044,146.154 83.3044,145.654 84.5,145C 82.5273,144.505 80.5273,144.338 78.5,144.5 Z"/></g>
<g><path style="opacity:1" fill="#7a9ab7" d="M 123.5,147.5 C 123.5,150.5 123.5,153.5 123.5,156.5C 119.298,156.817 115.298,156.483 111.5,155.5C 115.167,155.5 118.833,155.5 122.5,155.5C 122.194,152.615 122.527,149.948 123.5,147.5 Z"/></g>
<g><path style="opacity:1" fill="#e8f4f4" d="M 127.5,142.5 C 135.222,142.233 142.889,142.566 150.5,143.5C 150.685,145.196 151.519,146.529 153,147.5C 153.499,151.821 153.666,156.154 153.5,160.5C 157.5,160.5 161.5,160.5 165.5,160.5C 167.411,161.075 169.078,162.075 170.5,163.5C 171.358,171.132 171.691,178.799 171.5,186.5C 170.023,188.807 168.023,190.64 165.5,192C 161.848,192.499 158.182,192.665 154.5,192.5C 156.274,205.893 150.441,211.893 137,210.5C 123.209,208.732 109.375,208.232 95.5,209C 92.7558,209.803 90.0891,210.803 87.5,212C 85.6298,214.04 83.6298,215.873 81.5,217.5C 81.33,216.178 81.6634,215.011 82.5,214C 81.3279,213.581 80.3279,212.915 79.5,212C 81.5,211.667 83.5,211.333 85.5,211C 86.8333,210.333 86.8333,209.667 85.5,209C 87.8782,208.489 90.2115,207.822 92.5,207C 104.546,206.188 116.546,206.354 128.5,207.5C 129.434,205.905 129.434,204.239 128.5,202.5C 128.833,202.5 129.167,202.5 129.5,202.5C 129.611,203.117 129.944,203.617 130.5,204C 135.5,204.667 140.5,204.667 145.5,204C 146.044,203.283 146.711,202.783 147.5,202.5C 148.488,197.36 148.821,192.026 148.5,186.5C 153.695,186.821 158.695,186.487 163.5,185.5C 164.458,185.047 165.292,184.381 166,183.5C 166.817,177.984 166.651,172.65 165.5,167.5C 165.389,166.883 165.056,166.383 164.5,166C 159.177,165.501 153.844,165.334 148.5,165.5C 148.821,159.974 148.488,154.64 147.5,149.5C 146.833,149.167 146.167,148.833 145.5,148.5C 140.684,147.35 135.684,147.184 130.5,148C 130,148.5 129.5,149 129,149.5C 128.501,155.157 128.334,160.824 128.5,166.5C 122.824,166.334 117.157,166.501 111.5,167C 110.748,167.671 110.414,168.504 110.5,169.5C 109.517,173.298 109.183,177.298 109.5,181.5C 108.883,181.389 108.383,181.056 108,180.5C 107.8,176.247 107.3,172.08 106.5,168C 108.176,166.823 109.509,165.323 110.5,163.5C 117.502,164.803 118.168,162.803 112.5,157.5C 116.371,157.815 120.038,157.482 123.5,156.5C 123.5,153.5 123.5,150.5 123.5,147.5C 124.111,145.225 125.445,143.559 127.5,142.5 Z"/></g>
<g><path style="opacity:1" fill="#93bbba" d="M 145.5,148.5 C 140.821,148.334 136.155,148.501 131.5,149C 131,149.5 130.5,150 130,150.5C 129.827,156.016 129.327,161.349 128.5,166.5C 128.334,160.824 128.501,155.157 129,149.5C 129.5,149 130,148.5 130.5,148C 135.684,147.184 140.684,147.35 145.5,148.5 Z"/></g>
<g><path style="opacity:1" fill="#387988" d="M 181.5,155.5 C 183.387,157.789 184.721,160.455 185.5,163.5C 186.079,167.67 187.079,171.67 188.5,175.5C 186.167,175.5 183.833,175.5 181.5,175.5C 180.627,171.097 178.127,169.43 174,170.5C 173.768,169.263 173.268,168.263 172.5,167.5C 172.167,166.167 171.833,164.833 171.5,163.5C 172.549,163.402 173.715,163.402 175,163.5C 176.658,161.677 178.491,160.01 180.5,158.5C 181.386,157.675 181.719,156.675 181.5,155.5 Z"/></g>
<g><path style="opacity:1" fill="#408a83" d="M 145.5,148.5 C 146.167,148.833 146.833,149.167 147.5,149.5C 147.5,155.167 147.5,160.833 147.5,166.5C 153.559,166.254 159.559,166.587 165.5,167.5C 166.651,172.65 166.817,177.984 166,183.5C 165.292,184.381 164.458,185.047 163.5,185.5C 158.167,185.5 152.833,185.5 147.5,185.5C 147.5,191.167 147.5,196.833 147.5,202.5C 146.711,202.783 146.044,203.283 145.5,204C 140.5,204.667 135.5,204.667 130.5,204C 129.944,203.617 129.611,203.117 129.5,202.5C 129.5,197.167 129.5,191.833 129.5,186.5C 123.5,186.5 117.5,186.5 111.5,186.5C 110.646,180.879 110.313,175.212 110.5,169.5C 110.414,168.504 110.748,167.671 111.5,167C 117.157,166.501 122.824,166.334 128.5,166.5C 129.327,161.349 129.827,156.016 130,150.5C 130.5,150 131,149.5 131.5,149C 136.155,148.501 140.821,148.334 145.5,148.5 Z"/></g>
<g><path style="opacity:1" fill="#bfe0de" d="M 147.5,149.5 C 148.488,154.64 148.821,159.974 148.5,165.5C 153.844,165.334 159.177,165.501 164.5,166C 165.056,166.383 165.389,166.883 165.5,167.5C 159.559,166.587 153.559,166.254 147.5,166.5C 147.5,160.833 147.5,155.167 147.5,149.5 Z"/></g>
<g><path style="opacity:1" fill="#aed3d5" d="M 170.5,163.5 C 170.833,163.5 171.167,163.5 171.5,163.5C 171.833,164.833 172.167,166.167 172.5,167.5C 172.5,172.833 172.5,178.167 172.5,183.5C 172.737,184.791 172.404,185.791 171.5,186.5C 171.691,178.799 171.358,171.132 170.5,163.5 Z"/></g>
<g><path style="opacity:1" fill="#3f8889" d="M 185.5,163.5 C 187.311,165.385 188.478,167.719 189,170.5C 189.821,177.679 189.655,184.679 188.5,191.5C 187.073,189.852 186.24,187.852 186,185.5C 184.605,186.815 183.605,186.481 183,184.5C 182.167,186 181,187.167 179.5,188C 182,188.833 182.167,190 180,191.5C 178.235,189.605 176.402,187.771 174.5,186C 174.833,185.667 175.167,185.333 175.5,185C 174.809,183.933 174.309,182.766 174,181.5C 173.722,182.416 173.222,183.082 172.5,183.5C 172.5,178.167 172.5,172.833 172.5,167.5C 173.268,168.263 173.768,169.263 174,170.5C 178.127,169.43 180.627,171.097 181.5,175.5C 183.833,175.5 186.167,175.5 188.5,175.5C 187.079,171.67 186.079,167.67 185.5,163.5 Z"/></g>
<g><path style="opacity:1" fill="#cae4e2" d="M 110.5,169.5 C 110.313,175.212 110.646,180.879 111.5,186.5C 117.5,186.5 123.5,186.5 129.5,186.5C 129.5,191.833 129.5,197.167 129.5,202.5C 129.167,202.5 128.833,202.5 128.5,202.5C 127.555,197.595 127.221,192.595 127.5,187.5C 121.792,187.258 116.125,187.592 110.5,188.5C 109.833,188.167 109.167,187.833 108.5,187.5C 109.348,185.591 109.682,183.591 109.5,181.5C 109.183,177.298 109.517,173.298 110.5,169.5 Z"/></g>
<g><path style="opacity:1" fill="#a1c8c3" d="M 163.5,185.5 C 158.695,186.487 153.695,186.821 148.5,186.5C 148.821,192.026 148.488,197.36 147.5,202.5C 147.5,196.833 147.5,191.167 147.5,185.5C 152.833,185.5 158.167,185.5 163.5,185.5 Z"/></g>
<g><path style="opacity:1" fill="#ddf0ee" d="M 187.5,203.5 C 187.455,207.346 186.622,211.013 185,214.5C 180.293,220.428 174.459,224.761 167.5,227.5C 175.611,220.72 182.278,212.72 187.5,203.5 Z"/></g>
<g><path style="opacity:1" fill="#3c8881" d="M 188.5,191.5 C 188.693,195.566 188.36,199.566 187.5,203.5C 182.278,212.72 175.611,220.72 167.5,227.5C 162.09,229.852 156.756,232.185 151.5,234.5C 149.833,234.5 148.167,234.5 146.5,234.5C 123.167,234.5 99.8333,234.5 76.5,234.5C 76.5,232.167 76.5,229.833 76.5,227.5C 77.6417,223.883 79.3084,220.55 81.5,217.5C 83.6298,215.873 85.6298,214.04 87.5,212C 90.0891,210.803 92.7558,209.803 95.5,209C 109.375,208.232 123.209,208.732 137,210.5C 150.441,211.893 156.274,205.893 154.5,192.5C 158.182,192.665 161.848,192.499 165.5,192C 168.023,190.64 170.023,188.807 171.5,186.5C 172.404,185.791 172.737,184.791 172.5,183.5C 173.222,183.082 173.722,182.416 174,181.5C 174.309,182.766 174.809,183.933 175.5,185C 175.167,185.333 174.833,185.667 174.5,186C 176.402,187.771 178.235,189.605 180,191.5C 182.167,190 182,188.833 179.5,188C 181,187.167 182.167,186 183,184.5C 183.605,186.481 184.605,186.815 186,185.5C 186.24,187.852 187.073,189.852 188.5,191.5 Z"/></g>
<g><path style="opacity:1" fill="#e8f6f6" d="M 81.5,217.5 C 79.3084,220.55 77.6417,223.883 76.5,227.5C 75.5269,229.948 75.1936,232.615 75.5,235.5C 99.3298,236.663 123.33,236.83 147.5,236C 149.058,235.79 150.391,235.29 151.5,234.5C 156.756,232.185 162.09,229.852 167.5,227.5C 165.082,229.583 162.749,231.917 160.5,234.5C 158.376,235.149 156.376,235.983 154.5,237C 127.833,237.667 101.167,237.667 74.5,237C 73.6721,236.085 72.6721,235.419 71.5,235C 72.8333,234.333 72.8333,233.667 71.5,233C 72.1471,227.925 73.4805,223.092 75.5,218.5C 77.5,218.167 79.5,217.833 81.5,217.5 Z"/></g>
<g><path style="opacity:1" fill="#b6d6d4" d="M 146.5,234.5 C 148.167,234.5 149.833,234.5 151.5,234.5C 150.391,235.29 149.058,235.79 147.5,236C 123.33,236.83 99.3298,236.663 75.5,235.5C 99.3392,235.831 123.006,235.498 146.5,234.5 Z"/></g>
<g><path style="opacity:1" fill="#5f9791" d="M 76.5,227.5 C 76.5,229.833 76.5,232.167 76.5,234.5C 99.8333,234.5 123.167,234.5 146.5,234.5C 123.006,235.498 99.3392,235.831 75.5,235.5C 75.1936,232.615 75.5269,229.948 76.5,227.5 Z"/></g>
<g><path style="opacity:1" fill="#86aaa1" d="M 26.5,224.5 C 27.1667,224.5 27.8333,224.5 28.5,224.5C 28.3367,226.857 28.5034,229.19 29,231.5C 30.3636,238.565 33.5303,244.565 38.5,249.5C 43.3942,256.383 50.0609,260.383 58.5,261.5C 59.5676,262.434 60.901,262.768 62.5,262.5C 62.1667,263.167 61.8333,263.833 61.5,264.5C 59.5,264.167 57.5,263.833 55.5,263.5C 47.3243,260.58 40.3243,255.913 34.5,249.5C 32.5221,245.544 30.5221,241.544 28.5,237.5C 27.0872,233.277 26.4205,228.943 26.5,224.5 Z"/></g>
<g><path style="opacity:1" fill="#e9f8f8" d="M 207.5,260.5 C 206.391,261.29 205.058,261.79 203.5,262C 156.835,262.5 110.168,262.667 63.5,262.5C 63.1667,262.5 62.8333,262.5 62.5,262.5C 60.901,262.768 59.5676,262.434 58.5,261.5C 105.835,261.667 153.168,261.5 200.5,261C 201,260.5 201.5,260 202,259.5C 203.699,260.406 205.533,260.739 207.5,260.5 Z"/></g>
<g><path style="opacity:1" fill="#739795" d="M 62.5,262.5 C 62.8333,262.5 63.1667,262.5 63.5,262.5C 107.5,263.167 151.5,263.833 195.5,264.5C 150.833,264.5 106.167,264.5 61.5,264.5C 61.8333,263.833 62.1667,263.167 62.5,262.5 Z"/></g>
<g><path style="opacity:1" fill="#bcdbd5" d="M 55.5,263.5 C 57.5,263.833 59.5,264.167 61.5,264.5C 106.167,264.5 150.833,264.5 195.5,264.5C 196.833,264.5 198.167,264.5 199.5,264.5C 152.335,265.665 105.002,265.832 57.5,265C 56.5842,264.722 55.9175,264.222 55.5,263.5 Z"/></g>
</svg>
